<svg width="217" height="152" viewBox="0 0 217 152" fill="none" xmlns="http://www.w3.org/2000/svg">
<path d="M79.6279 54.0477H43.0178L50.3398 145.511C50.6449 147.34 52.7195 150.999 58.5771 150.999C64.4347 150.999 66.5093 147.34 66.8144 145.511L72.3059 75.9989H149.187V65.0233H83.2889L79.6279 54.0477Z" fill="#e5fff5" stroke="#01D684"/>
<path d="M72.3052 76H170.237L163.831 140.024C163.221 143.683 160.17 151 152.848 151H58.5764C64.434 151 66.5086 147.341 66.8137 145.512L72.3052 76Z" stroke="#01D684"/>
<ellipse cx="102.509" cy="118.073" rx="3.66102" ry="3.65853" fill="#01d684"/>
<path d="M105.669 35.7546C105.669 38.509 103.435 40.7424 100.678 40.7424C97.9208 40.7424 95.6863 38.509 95.6863 35.7546C95.6863 33.0003 97.9208 30.7668 100.678 30.7668C103.435 30.7668 105.669 33.0003 105.669 35.7546Z" fill="#e5fff5" stroke="#01D684"/>
<path d="M200.856 116.243C200.856 120.008 197.802 123.06 194.034 123.06C190.266 123.06 187.212 120.008 187.212 116.243C187.212 112.478 190.266 109.426 194.034 109.426C197.802 109.426 200.856 112.478 200.856 116.243Z" fill="#e5fff5" stroke="#01D684"/>
<path d="M210.008 101.61C210.008 103.354 208.593 104.768 206.847 104.768C205.101 104.768 203.686 103.354 203.686 101.61C203.686 99.8659 205.101 98.4514 206.847 98.4514C208.593 98.4514 210.008 99.8659 210.008 101.61Z" fill="#e5fff5" stroke="#01D684"/>
<path d="M6.82203 88.8058C6.82203 90.5498 5.40711 91.9643 3.66102 91.9643C1.91491 91.9643 0.5 90.5498 0.5 88.8058C0.5 87.0617 1.91491 85.6472 3.66102 85.6472C5.40711 85.6472 6.82203 87.0617 6.82203 88.8058Z" fill="#e5fff5" stroke="#01D684"/>
<ellipse cx="135.458" cy="118.073" rx="3.66102" ry="3.65853" fill="#01d684"/>
<path d="M94.2712 105.27L104.339 101.611" stroke="#01D684" stroke-linecap="round"/>
<path d="M30.2038 127.221L35.6953 121.733" stroke="#01D684" stroke-linecap="round"/>
<path d="M30.2038 121.733L35.6953 127.221" stroke="#01D684" stroke-linecap="round"/>
<path d="M52.1693 33.9254L55.8303 30.2668" stroke="#01D684" stroke-linecap="round"/>
<path d="M52.1693 30.2668L55.8303 33.9254" stroke="#01D684" stroke-linecap="round"/>
<path d="M132.712 101.611L141.865 105.27" stroke="#01D684" stroke-linecap="round"/>
<path d="M116.237 133.622H123.559" stroke="#01D684" stroke-linecap="round"/>
<path fill-rule="evenodd" clip-rule="evenodd" d="M190.933 62.6073C205.223 59.7927 216 47.2028 216 32.0975C216 14.9228 202.068 1 184.881 1C167.695 1 153.763 14.9228 153.763 32.0975C153.763 47.8032 165.414 60.7896 180.549 62.8962C179.563 67.9735 177.722 70.0812 176.644 70.5123C182.155 70.5123 187.235 66.6732 190.933 62.6073Z" fill="#e5fff5"/>
<path d="M190.933 62.6073L190.837 62.1168C190.732 62.1375 190.636 62.1915 190.564 62.2709L190.933 62.6073ZM180.549 62.8962L181.04 62.9915C181.066 62.8568 181.036 62.7172 180.956 62.6055C180.877 62.4939 180.754 62.4199 180.618 62.401L180.549 62.8962ZM176.644 70.5123L176.458 70.048C176.235 70.137 176.107 70.3714 176.153 70.6068C176.198 70.8422 176.404 71.0123 176.644 71.0123V70.5123ZM215.5 32.0975C215.5 46.9591 204.897 59.3473 190.837 62.1168L191.03 63.0979C205.549 60.238 216.5 47.4465 216.5 32.0975H215.5ZM184.881 1.5C201.792 1.5 215.5 15.1993 215.5 32.0975H216.5C216.5 14.6464 202.344 0.5 184.881 0.5V1.5ZM154.263 32.0975C154.263 15.1993 167.971 1.5 184.881 1.5V0.5C167.419 0.5 153.263 14.6464 153.263 32.0975H154.263ZM180.618 62.401C165.726 60.3282 154.263 47.55 154.263 32.0975H153.263C153.263 48.0564 165.101 61.2509 180.481 63.3914L180.618 62.401ZM180.059 62.8009C179.574 65.2972 178.884 67.0367 178.201 68.1922C177.509 69.3619 176.852 69.8906 176.458 70.048L176.829 70.9766C177.514 70.7029 178.316 69.9621 179.062 68.701C179.815 67.4255 180.539 65.5725 181.04 62.9915L180.059 62.8009ZM176.644 71.0123C182.376 71.0123 187.582 67.0345 191.303 62.9438L190.564 62.2709C186.888 66.3118 181.935 70.0123 176.644 70.0123V71.0123Z" fill="#01d684"/>
<path d="M175.341 24.5896C175.58 24.0043 176.129 23.4936 176.578 23.0601C177.04 22.6136 177.476 22.1574 177.973 21.7463C179.107 20.8097 180.265 19.8198 181.534 19.0703C181.953 18.8225 182.349 18.4905 182.821 18.3527C183.152 18.2564 183.502 18.2286 183.845 18.2286C184.452 18.2286 184.939 18.2873 185.518 18.4957C185.792 18.5942 186.051 18.7645 186.296 18.9192C186.666 19.1535 187.133 19.3874 187.419 19.7231C188.04 20.4529 188.495 21.2664 188.895 22.1375C189.394 23.2225 189.806 24.2765 189.881 25.4798C189.938 26.4073 190.025 27.4095 189.773 28.3123C189.493 29.3111 189.038 30.232 188.515 31.1232C188.076 31.8701 187.531 32.6242 186.892 33.2166C186.221 33.8398 185.449 34.3406 184.727 34.9026C183.974 35.4896 183.171 35.9565 182.327 36.3998C181.488 36.8411 180.689 37.2276 179.763 37.4572C179.548 37.5106 178.698 37.7841 178.524 37.5516C178.367 37.342 178.326 36.9616 178.308 36.7073C178.256 35.957 178.459 35.2743 178.864 34.6409C179.471 33.6921 180.377 32.9502 181.172 32.1645C181.689 31.6536 182.238 31.2447 182.813 30.8049C183.362 30.3855 183.906 29.9543 184.525 29.6395C185.534 29.1261 186.671 28.5713 187.829 28.5713C188.299 28.5713 188.768 28.5713 189.238 28.5713C189.689 28.5713 190.201 28.8034 190.596 29.011C191.138 29.2962 191.4 29.6902 191.657 30.2222C192.207 31.3636 192.554 32.5413 192.588 33.8181C192.627 35.2842 192.473 36.9201 191.452 38.0723C190.943 38.6458 190.552 39.3484 189.994 39.8743C189.497 40.3428 188.985 40.8106 188.471 41.2609C187.623 42.0041 186.871 42.8306 185.858 43.3569C185.336 43.6283 184.831 43.8541 184.271 44.061C184.024 44.1522 183.231 44.227 183.046 43.9881C182.893 43.7919 182.947 43.3901 183.091 43.2139C183.222 43.0539 183.274 42.7835 183.359 42.5935C183.631 41.984 183.898 41.3086 184.309 40.7753C184.941 39.9537 185.633 39.1811 186.441 38.5282C187.127 37.9746 187.947 37.2821 188.849 37.1551C189.108 37.1187 189.384 37.0174 189.648 37.0796C190.021 37.1671 190.387 37.3331 190.744 37.468C191.305 37.6801 191.798 37.9935 192.126 38.5012C192.511 39.0953 192.216 39.9551 192.062 40.5568C191.903 41.1729 191.798 41.791 191.57 42.3885C191.231 43.2791 190.75 44.1545 190.231 44.9512C189.27 46.4282 188.142 47.8497 186.657 48.8304C186.569 48.8886 185.769 49.4607 185.691 49.3051" stroke="#01D684" stroke-linecap="round" stroke-linejoin="round"/>
</svg>
