<svg xmlns="http://www.w3.org/2000/svg" width="341.50458698739885" height="263.532108911791" fill="none" style=""><rect id="backgroundrect" width="100%" height="100%" x="0" y="0" fill="none" stroke="none" class="" style=""/>

























































































































<g class="currentLayer" style=""><title>Layer 1</title><path d="M55.208 206.001C55.208 206.001 72.058 244.419 114.662 256.982C157.265 269.546 202.76 252.804 239.938 240.22C277.116 227.636 296.669 195.46 288.385 162.467C280.102 129.475 248.781 131.847 219.57 102.549C190.359 73.2499 187.029 61.0236 146.549 52.3694C106.068 43.7153 61.7593 77.786 50.6787 126.038C39.5982 174.289 55.208 206.001 55.208 206.001Z" fill="#01D684" id="svg_1" class=""/><path opacity="0.8" d="M55.208 206.001C55.208 206.001 72.058 244.419 114.662 256.982C157.265 269.546 202.76 252.804 239.938 240.22C277.116 227.636 296.669 195.46 288.385 162.467C280.102 129.475 248.781 131.847 219.57 102.549C190.359 73.2499 187.029 61.0236 146.549 52.3694C106.068 43.7153 61.7593 77.786 50.6787 126.038C39.5982 174.289 55.208 206.001 55.208 206.001Z" fill="white" id="svg_2" class=""/><path d="M271.622 154.076C271.622 154.076 287.07 155.606 294.895 165.184C294.895 165.184 303.172 154.09 318.027 154.319C321.657 149.939 323.969 144.619 324.692 138.976C325.416 133.334 324.522 127.602 322.114 122.448C319.707 117.294 315.885 112.93 311.093 109.864C306.301 106.798 300.738 105.157 295.049 105.13C289.361 105.104 283.782 106.694 278.962 109.715C274.142 112.736 270.279 117.065 267.824 122.196C265.369 127.327 264.421 133.051 265.093 138.699C265.764 144.348 268.026 149.69 271.615 154.103L271.622 154.076Z" fill="#01D684" id="svg_3" class=""/><path opacity="0.5" d="M271.622 154.076C271.622 154.076 287.07 155.606 294.895 165.184C294.895 165.184 303.172 154.09 318.027 154.319C321.657 149.939 323.969 144.619 324.692 138.976C325.416 133.334 324.522 127.602 322.114 122.448C319.707 117.294 315.885 112.93 311.093 109.864C306.301 106.798 300.738 105.157 295.049 105.13C289.361 105.104 283.782 106.694 278.962 109.715C274.142 112.736 270.279 117.065 267.824 122.196C265.369 127.327 264.421 133.051 265.093 138.699C265.764 144.348 268.026 149.69 271.615 154.103L271.622 154.076Z" fill="white" id="svg_4" class=""/><path d="M294.376 107.247L293.857 207.363H296.466L294.376 107.247Z" fill="#B8B8B8" id="svg_5" class=""/><path d="M295.165 162.265C295.165 162.265 300.375 152.876 309.764 150.005C309.764 150.005 299.856 152.357 294.936 160.438L295.165 162.265Z" fill="#B8B8B8" id="svg_6" class=""/><path d="M295.165 135.669C295.165 135.669 300.375 126.28 309.764 123.409C309.764 123.409 299.856 125.755 294.936 133.843L295.165 135.669Z" fill="#B8B8B8" id="svg_7" class=""/><path d="M295.165 148.953C295.165 148.953 300.375 139.565 309.764 136.693C309.764 136.693 299.856 139.046 294.936 147.127L295.165 148.953Z" fill="#B8B8B8" id="svg_8" class=""/><path d="M294.39 142.443C294.39 142.443 289.355 133.061 280.297 130.189C280.297 130.189 289.861 132.535 294.64 140.623L294.39 142.443Z" fill="#B8B8B8" id="svg_9" class=""/><path d="M294.39 155.485C294.39 155.485 289.355 146.096 280.297 143.231C280.297 143.231 289.861 145.577 294.64 153.658L294.39 155.485Z" fill="#B8B8B8" id="svg_10" class=""/><path d="M18.784 154.077C18.784 154.077 34.2321 155.607 42.0572 165.185C42.0572 165.185 50.334 154.091 65.1889 154.32C68.8192 149.94 71.1307 144.62 71.8544 138.977C72.578 133.335 71.684 127.603 69.2765 122.449C66.8689 117.295 63.0468 112.931 58.2552 109.865C53.4636 106.799 47.8997 105.158 42.2112 105.131C36.5227 105.105 30.9437 106.695 26.1239 109.716C21.304 112.737 17.4415 117.066 14.9861 122.197C12.5307 127.328 11.5835 133.052 12.2547 138.7C12.9259 144.349 15.1878 149.691 18.7773 154.104L18.784 154.077Z" fill="#01D684" id="svg_11" class=""/><path opacity="0.5" d="M18.784 154.077C18.784 154.077 34.2321 155.607 42.0572 165.185C42.0572 165.185 50.334 154.091 65.1889 154.32C68.8192 149.94 71.1307 144.62 71.8544 138.977C72.578 133.335 71.684 127.603 69.2765 122.449C66.8689 117.295 63.0468 112.931 58.2552 109.865C53.4636 106.799 47.8997 105.158 42.2112 105.131C36.5227 105.105 30.9437 106.695 26.1239 109.716C21.304 112.737 17.4415 117.066 14.9861 122.197C12.5307 127.328 11.5835 133.052 12.2547 138.7C12.9259 144.349 15.1878 149.691 18.7773 154.104L18.784 154.077Z" fill="white" id="svg_12" class=""/><path d="M41.5511 107.247L41.0254 207.363H43.6338L41.5511 107.247Z" fill="#B8B8B8" id="svg_13" class=""/><path d="M42.3346 162.265C42.3346 162.265 47.5446 152.876 56.9335 150.005C56.9335 150.005 47.0257 152.357 42.1055 160.438L42.3346 162.265Z" fill="#B8B8B8" id="svg_14" class=""/><path d="M42.3346 135.669C42.3346 135.669 47.5446 126.28 56.9335 123.409C56.9335 123.409 47.0257 125.755 42.1055 133.843L42.3346 135.669Z" fill="#B8B8B8" id="svg_15" class=""/><path d="M42.3346 148.953C42.3346 148.953 47.5446 139.565 56.9335 136.693C56.9335 136.693 47.0257 139.046 42.1055 147.127L42.3346 148.953Z" fill="#B8B8B8" id="svg_16" class=""/><path d="M41.5582 142.443C41.5582 142.443 36.5234 133.061 27.4648 130.189C27.4648 130.189 37.0289 132.535 41.8076 140.623L41.5582 142.443Z" fill="#B8B8B8" id="svg_17" class=""/><path d="M41.5582 155.485C41.5582 155.485 36.5234 146.096 27.4648 143.231C27.4648 143.231 37.0289 145.577 41.8076 153.658L41.5582 155.485Z" fill="#B8B8B8" id="svg_18" class=""/><path d="M208.852 163.782C208.852 163.782 221.497 165.029 227.9 172.867C227.9 172.867 234.673 163.789 246.832 163.97C249.802 160.385 251.692 156.031 252.283 151.413C252.874 146.795 252.141 142.105 250.17 137.887C248.199 133.67 245.07 130.1 241.148 127.591C237.226 125.083 232.672 123.741 228.017 123.72C223.362 123.699 218.796 125.001 214.852 127.475C210.908 129.948 207.748 133.491 205.739 137.69C203.731 141.89 202.956 146.574 203.506 151.197C204.056 155.819 205.908 160.191 208.846 163.802L208.852 163.782Z" fill="#01D684" id="svg_19" class=""/><path opacity="0.5" d="M208.852 163.782C208.852 163.782 221.497 165.029 227.9 172.867C227.9 172.867 234.673 163.789 246.832 163.97C249.802 160.385 251.692 156.031 252.283 151.413C252.874 146.795 252.141 142.105 250.17 137.887C248.199 133.67 245.07 130.1 241.148 127.591C237.226 125.083 232.672 123.741 228.017 123.72C223.362 123.699 218.796 125.001 214.852 127.475C210.908 129.948 207.748 133.491 205.739 137.69C203.731 141.89 202.956 146.574 203.506 151.197C204.056 155.819 205.908 160.191 208.846 163.802L208.852 163.782Z" fill="white" id="svg_20" class=""/><path d="M227.481 125.418L227.057 207.363H229.193L227.481 125.418Z" fill="#B8B8B8" id="svg_21" class=""/><path d="M228.121 170.455C228.121 170.455 232.395 162.771 240.071 160.419C240.071 160.419 231.983 162.34 227.939 168.959L228.121 170.455Z" fill="#B8B8B8" id="svg_22" class=""/><path d="M228.121 148.684C228.121 148.684 232.395 141.001 240.071 138.655C240.071 138.655 231.983 140.576 227.939 147.188L228.121 148.684Z" fill="#B8B8B8" id="svg_23" class=""/><path d="M228.121 159.569C228.121 159.569 232.395 151.885 240.071 149.533C240.071 149.533 231.983 151.454 227.939 158.073L228.121 159.569Z" fill="#B8B8B8" id="svg_24" class=""/><path d="M227.489 154.231C227.489 154.231 223.371 146.548 215.957 144.202C215.957 144.202 223.782 146.123 227.698 152.735L227.489 154.231Z" fill="#B8B8B8" id="svg_25" class=""/><path d="M227.489 164.901C227.489 164.901 223.371 157.218 215.957 154.872C215.957 154.872 223.782 156.793 227.698 163.412L227.489 164.901Z" fill="#B8B8B8" id="svg_26" class=""/><path d="M86.5144 163.782C86.5144 163.782 99.1586 165.029 105.562 172.867C105.562 172.867 112.302 163.789 124.494 163.97C127.464 160.385 129.355 156.031 129.945 151.413C130.536 146.795 129.803 142.105 127.832 137.887C125.861 133.67 122.732 130.1 118.81 127.591C114.888 125.083 110.334 123.741 105.679 123.72C101.024 123.699 96.4585 125.001 92.5145 127.475C88.5705 129.948 85.4102 133.491 83.4015 137.69C81.3927 141.89 80.6182 146.574 81.1682 151.197C81.7181 155.819 83.5698 160.191 86.5077 163.802L86.5144 163.782Z" fill="#01D684" id="svg_27" class=""/><path opacity="0.5" d="M86.5144 163.782C86.5144 163.782 99.1586 165.029 105.562 172.867C105.562 172.867 112.302 163.789 124.494 163.97C127.464 160.385 129.355 156.031 129.945 151.413C130.536 146.795 129.803 142.105 127.832 137.887C125.861 133.67 122.732 130.1 118.81 127.591C114.888 125.083 110.334 123.741 105.679 123.72C101.024 123.699 96.4585 125.001 92.5145 127.475C88.5705 129.948 85.4102 133.491 83.4015 137.69C81.3927 141.89 80.6182 146.574 81.1682 151.197C81.7181 155.819 83.5698 160.191 86.5077 163.802L86.5144 163.782Z" fill="white" id="svg_28" class=""/><path d="M105.143 125.418L104.719 207.363H106.855L105.143 125.418Z" fill="#B8B8B8" id="svg_29" class=""/><path d="M105.817 170.455C105.817 170.455 110.09 162.771 117.767 160.419C117.767 160.419 109.679 162.34 105.635 168.959L105.817 170.455Z" fill="#B8B8B8" id="svg_30" class=""/><path d="M105.817 148.684C105.817 148.684 110.09 141.001 117.767 138.655C117.767 138.655 109.679 140.576 105.635 147.188L105.817 148.684Z" fill="#B8B8B8" id="svg_31" class=""/><path d="M105.817 159.569C105.817 159.569 110.09 151.885 117.767 149.533C117.767 149.533 109.679 151.454 105.635 158.073L105.817 159.569Z" fill="#B8B8B8" id="svg_32" class=""/><path d="M105.145 154.232C105.145 154.232 101.033 146.548 93.6191 144.236C93.6191 144.236 101.444 146.157 105.36 152.769L105.145 154.232Z" fill="#B8B8B8" id="svg_33" class=""/><path d="M105.143 164.901C105.143 164.901 101.025 157.218 93.6113 154.872C93.6113 154.872 101.436 156.793 105.352 163.412L105.143 164.901Z" fill="#B8B8B8" id="svg_34" class=""/><path d="M23.4355 207.72H314.294" stroke="#263238" stroke-width="0.705961" stroke-miterlimit="10" id="svg_35" class=""/><path opacity="0.3" d="M102.845 240.247C102.845 242.269 90.4228 243.88 75.0893 243.88C59.7558 243.88 47.334 242.256 47.334 240.247C47.334 238.239 59.7625 236.614 75.0893 236.614C90.4161 236.614 102.845 238.245 102.845 240.247Z" fill="black" id="svg_36" class=""/><path opacity="0.3" d="M160.95 240.247C160.95 242.269 148.522 243.88 133.195 243.88C117.868 243.88 105.439 242.256 105.439 240.247C105.439 238.239 117.868 236.614 133.195 236.614C148.522 236.614 160.95 238.245 160.95 240.247Z" fill="black" id="svg_37" class=""/><path opacity="0.3" d="M237.92 240.247C237.92 242.269 225.498 243.88 210.171 243.88C194.845 243.88 182.416 242.256 182.416 240.247C182.416 238.239 194.838 236.614 210.171 236.614C225.505 236.614 237.92 238.245 237.92 240.247Z" fill="black" id="svg_38" class=""/><path opacity="0.3" d="M302.221 240.247C302.221 242.269 289.793 243.88 274.466 243.88C259.139 243.88 246.684 242.256 246.684 240.247C246.684 238.239 259.112 236.614 274.439 236.614C289.766 236.614 302.221 238.245 302.221 240.247Z" fill="black" id="svg_39" class=""/><path d="M213.171 133.971C213.171 133.971 212.031 138.689 212.031 139.484C212.031 139.976 211.977 140.466 211.87 140.947C211.87 140.947 209.437 143.865 209.76 144.674C210.153 145.303 210.716 145.807 211.384 146.13C211.384 146.13 212.679 150.848 213.979 151.158C215.315 151.407 216.666 151.569 218.023 151.643L218.509 155.532L224.992 154.561L223.375 148.725L224.049 143.697C224.049 143.697 225.181 141.594 224.049 138.19C222.917 134.786 220.483 134.624 218.859 134.624C216.953 134.504 215.054 134.286 213.171 133.971Z" fill="white" stroke="#263238" stroke-width="0.705961" stroke-linecap="round" stroke-linejoin="round" id="svg_40" class=""/><path d="M216.089 131.544C216.089 131.544 210.414 131.375 210.576 132.838C210.737 134.301 216.574 136.208 216.574 136.208C216.574 136.208 214.626 137.502 215.597 138.803C216.568 140.104 218.839 141.236 218.839 141.236C218.839 141.236 218.165 143.993 219.169 144.155C220.173 144.316 220.787 142.854 220.949 142.368C221.11 141.883 222.896 142.045 223.382 143.339C223.656 144.011 223.82 144.724 223.867 145.449C223.867 145.449 225.815 139.612 226.138 137.017C226.462 134.422 219.169 131.544 216.089 131.544Z" fill="#263238" stroke="#263238" stroke-width="0.705961" stroke-linecap="round" stroke-linejoin="round" id="svg_41" class=""/><path d="M219.682 144.236C219.682 144.236 221.643 139.922 222.816 142.046C223.988 144.169 223.49 146.379 222.337 146.615C221.185 146.851 220.221 147.08 220.221 147.08" fill="white" id="svg_42" class=""/><path d="M219.682 144.236C219.682 144.236 221.643 139.922 222.816 142.046C223.988 144.169 223.49 146.379 222.337 146.615C221.185 146.851 220.221 147.08 220.221 147.08" stroke="#263238" stroke-width="0.705961" stroke-linecap="round" stroke-linejoin="round" id="svg_43" class=""/><path d="M211.708 189.252C211.391 189.623 206.195 200.764 205.547 204.491C204.9 208.218 200.688 230.433 200.519 231.404C200.351 232.374 191.447 234.322 190.794 234.484C190.14 234.646 191.468 236.432 193.389 236.917C195.309 237.402 200.85 239.674 202.151 238.373C203.451 237.072 205.231 229.78 205.716 228.971C206.201 228.162 215.327 206.661 215.327 206.661C215.327 206.661 220.005 196.342 220.975 195.365C221.946 194.388 219.823 190.067 219.007 188.767C218.192 187.466 213.979 186.657 211.708 189.252Z" fill="#263238" stroke="#263238" stroke-width="0.705961" stroke-linecap="round" stroke-linejoin="round" id="svg_44" class=""/><path d="M210.738 189.394C210.738 189.394 213.01 200.258 214.142 204.147C215.202 207.414 216.796 210.482 218.86 213.226C220.161 215.012 226.483 230.75 226.483 230.75L227.454 233.183C227.454 233.183 227.13 234.154 225.351 235.448C223.571 236.742 218.537 238.852 219.837 239.344C221.138 239.836 226.321 239.829 228.754 239.667C230.849 239.519 232.813 238.593 234.261 237.072C235.238 235.933 232.643 232.691 232.643 232.044C232.643 231.397 226.968 211.622 226.645 210.645C226.321 209.668 224.697 202.705 224.697 202.705V194.786C224.697 194.786 225.512 193.33 225.512 190.068C225.512 186.805 223.079 186.172 223.079 186.172L209.781 187.473L210.738 189.394Z" fill="#263238" stroke="#263238" stroke-width="0.705961" stroke-linecap="round" stroke-linejoin="round" id="svg_45" class=""/><path d="M209.611 188.443C209.611 188.443 209.942 191.2 210.912 191.362C211.883 191.524 221.932 194.28 226.313 191.038C226.313 191.038 227.122 188.605 226.637 187.958C226.151 187.311 225.012 187.635 219.182 187.635C213.352 187.635 209.611 187.635 209.611 188.443Z" fill="#01D684" stroke="#263238" stroke-width="0.705961" stroke-linecap="round" stroke-linejoin="round" id="svg_46" class=""/><path d="M224.514 152.128C224.514 152.128 218.515 152.937 215.92 155.498C213.325 158.059 211.061 162.797 209.928 167.172C208.796 171.546 207.981 187.601 209.598 188.409C211.216 189.218 224.837 190.034 227.122 189.083C229.407 188.133 226.96 180.49 226.96 177.571C226.96 174.653 229.555 164.765 229.07 159.259C228.585 153.752 224.514 152.128 224.514 152.128Z" fill="#01D684" stroke="#263238" stroke-width="0.705961" stroke-linecap="round" stroke-linejoin="round" id="svg_47" class=""/><path d="M202.872 168.978C202.798 162.305 200.075 156.61 196.455 154.15V152.802L186.48 152.903C180.866 152.964 176.37 160.317 176.485 169.281C176.599 178.245 181.203 185.504 186.824 185.457L196.799 185.356V184.008C200.304 181.4 202.905 175.65 202.872 168.978Z" fill="#263238" stroke="#263238" stroke-width="0.705961" stroke-linecap="round" stroke-linejoin="round" id="svg_48" class=""/><path d="M207.346 168.93C207.272 161.921 204.569 155.936 200.768 153.334V151.898L196.495 151.946C190.59 152.006 185.893 159.71 185.994 169.153C186.095 178.596 190.954 186.198 196.859 186.138L201.132 186.09V184.662C204.846 181.979 207.42 175.913 207.346 168.93Z" fill="white" stroke="#263238" stroke-width="0.705961" stroke-linecap="round" stroke-linejoin="round" id="svg_49" class=""/><path d="M211.634 168.884C211.736 178.32 207.031 186.03 201.134 186.091C195.236 186.152 190.349 178.549 190.269 169.113C190.188 159.677 194.872 151.966 200.77 151.899C206.667 151.831 211.52 159.441 211.634 168.884Z" fill="#737373" stroke="#263238" stroke-width="0.705961" stroke-linecap="round" stroke-linejoin="round" id="svg_50" class=""/><path d="M209.18 168.594C209.227 173.062 206.996 176.715 204.199 176.749C201.402 176.783 199.097 173.17 199.05 168.661C199.002 164.152 201.233 160.573 204.03 160.506C206.828 160.438 209.133 164.118 209.18 168.594Z" fill="#263238" stroke="#263238" stroke-width="0.705961" stroke-linecap="round" stroke-linejoin="round" id="svg_51" class=""/><path d="M288.604 202.199C289.161 198.045 289.397 193.854 289.312 189.663C287.122 190.674 274.343 191.045 273.17 191.072C271.997 191.099 259.218 190.674 257.028 189.663C256.931 193.853 257.156 198.044 257.702 202.199C258.584 207.666 266.349 229.55 266.524 230.609C266.751 231.629 267.046 232.633 267.407 233.615C267.407 233.615 262.992 236.789 261.051 238.023C259.11 239.256 260.526 239.788 262.467 239.788C264.408 239.788 268.465 239.256 269.699 239.256C270.791 239.256 272.691 238.306 273.136 238.077C273.581 238.306 275.482 239.256 276.567 239.256C277.807 239.256 281.864 239.788 283.806 239.788C285.747 239.788 287.176 239.256 285.221 238.023C283.266 236.789 278.865 233.615 278.865 233.615C279.226 232.633 279.521 231.629 279.748 230.609C279.957 229.53 287.722 207.645 288.604 202.199Z" fill="#263238" stroke="#263238" stroke-width="0.705961" stroke-linecap="round" stroke-linejoin="round" id="svg_52" class=""/><path d="M270.502 155.35C270.502 155.35 263.674 157.581 260.149 159.818C256.624 162.056 253.086 174.174 253.086 174.646C252.883 175.491 252.608 176.316 252.263 177.113C252.263 177.113 248.732 176.291 248.031 179.229C247.33 182.168 251.556 185.936 253.793 186.057C256.031 186.178 256.732 185.471 256.732 185.471C256.732 185.471 255.323 188.295 255.91 189.467C256.496 190.64 261.443 195.001 271.209 194.859C280.976 194.718 288.059 193.094 289.091 191.685C290.122 190.276 290.27 187.331 290.27 187.331C290.27 187.331 293.917 186.387 295.211 184.035C296.505 181.683 296.269 179.209 295.561 176.742C294.853 174.276 291.207 167.111 288.74 163.107C286.273 159.104 281.09 156.873 278.63 156.165C276.17 155.457 272.146 155.35 270.502 155.35Z" fill="#01D684" stroke="#263238" stroke-width="0.705961" stroke-linecap="round" stroke-linejoin="round" id="svg_53" class=""/><path d="M272.569 165.257C273.547 164.934 276.613 162.211 277.793 159.488C278.259 158.446 278.588 157.347 278.77 156.219L278.615 156.172C276.148 155.464 272.145 155.35 270.527 155.35C270.527 155.35 269.098 155.815 267.211 156.536C267.223 157.993 267.497 159.436 268.02 160.796C269.085 163.518 271.619 165.588 272.569 165.257Z" fill="white" stroke="#263238" stroke-width="0.705961" stroke-linecap="round" stroke-linejoin="round" id="svg_54" class=""/><path d="M283.793 170.758C283.793 170.758 286.617 185.822 289.819 187.372" stroke="#263238" stroke-width="0.705961" stroke-linecap="round" stroke-linejoin="round" id="svg_55" class=""/><path d="M256.732 185.47C256.732 185.47 260.264 172.172 260.5 170.878" stroke="#263238" stroke-width="0.705961" stroke-linecap="round" stroke-linejoin="round" id="svg_56" class=""/><path d="M288.355 177.564C288.355 177.564 286.4 178.003 286.4 179.418" stroke="#263238" stroke-width="0.705961" stroke-linecap="round" stroke-linejoin="round" id="svg_57" class=""/><path d="M255.148 177.78C255.148 177.78 257.325 179.196 257.11 181.373" stroke="#263238" stroke-width="0.705961" stroke-linecap="round" stroke-linejoin="round" id="svg_58" class=""/><path d="M269.733 239.269C270.825 239.269 272.725 238.319 273.17 238.09C273.615 238.319 275.516 239.269 276.601 239.269C277.841 239.269 281.899 239.802 283.84 239.802C285.781 239.802 287.21 239.269 285.255 238.036C283.563 236.964 280.018 234.43 279.115 233.783C277.032 235.684 272.914 235.212 272.914 235.212C272.08 235.086 271.254 234.911 270.441 234.686C269.207 234.329 267.441 233.628 267.441 233.628C267.441 233.628 263.027 236.802 261.085 238.036C259.144 239.269 260.56 239.802 262.501 239.802C264.442 239.802 268.499 239.269 269.733 239.269Z" fill="#01D684" stroke="#263238" stroke-width="0.705961" stroke-linecap="round" stroke-linejoin="round" id="svg_59" class=""/><path d="M272.914 233.655V202.88" stroke="white" stroke-width="0.705961" stroke-linecap="round" stroke-linejoin="round" id="svg_60" class=""/><path d="M273.17 238.056L272.914 235.178V233.655" stroke="#263238" stroke-width="0.705961" stroke-linecap="round" stroke-linejoin="round" id="svg_61" class=""/><path d="M270.441 201.822H275.557" stroke="white" stroke-width="0.705961" stroke-linecap="round" stroke-linejoin="round" id="svg_62" class=""/><path d="M263.754 137.691C263.754 137.691 260.088 139.888 260.634 141.815C261.179 143.743 262.838 144.114 262.474 145.185C262.11 146.257 260.836 146.931 262.285 147.605C263.11 147.975 263.974 148.253 264.86 148.434C264.86 148.434 266.208 153.112 268.526 153.934C270.845 154.756 274.862 154.21 277.706 153.846C278.667 153.752 279.576 153.368 280.313 152.744C281.05 152.12 281.579 151.287 281.831 150.355C282.107 149.351 280.638 150.544 279.903 149.438C279.169 148.333 280.274 145.495 281.096 143.015C281.918 140.535 279.445 135.857 276.237 134.3C273.028 132.743 266.902 133.559 263.754 137.691Z" fill="#263238" stroke="#263238" stroke-width="0.705961" stroke-linecap="round" stroke-linejoin="round" id="svg_63" class=""/><path d="M269.915 153.671C269.448 155.209 269.132 156.789 268.971 158.389C268.85 160.411 270.501 162.628 272.267 162.507C274.033 162.386 275.556 158.861 275.792 157.115C276.028 155.369 275.206 150.645 275.206 150.645C275.206 150.645 272.51 150.766 271.438 151.703C270.809 152.255 270.291 152.923 269.915 153.671Z" fill="white" stroke="#263238" stroke-width="0.705961" stroke-linecap="round" stroke-linejoin="round" id="svg_64" class=""/><path d="M267.522 140.259C267.522 140.259 267.61 143.009 270.366 145.651C272.023 147.253 273.988 148.503 276.142 149.324C276.094 149.926 275.939 150.515 275.684 151.063C275.564 151.292 275.377 151.479 275.149 151.6C274.92 151.72 274.66 151.768 274.403 151.737H273.48C273.48 151.737 272.132 154.898 270.501 155.356C268.87 155.815 264.86 155.498 264.307 151.461C263.754 147.423 263.667 144.121 264.125 143.292C264.583 142.463 267.522 140.259 267.522 140.259Z" fill="white" stroke="#263238" stroke-width="0.705961" stroke-linecap="round" stroke-linejoin="round" id="svg_65" class=""/><path d="M296.363 175.779C296.782 174.936 297.036 174.021 297.112 173.083C297.112 171.856 294.833 170.097 294.416 169.659C293.998 169.221 293.58 169.268 293.492 169.881C293.491 170.225 293.56 170.566 293.696 170.883C293.832 171.199 294.031 171.485 294.281 171.721C294.622 171.99 294.87 172.361 294.988 172.779C295.029 173.083 294.234 174.572 294.631 175.536C295.029 176.5 296.148 176.79 296.363 175.779Z" fill="white" stroke="#263238" stroke-width="0.705961" stroke-linecap="round" stroke-linejoin="round" id="svg_66" class=""/><path d="M205.08199998893255,168.89699975382177 C205.08199998893255,168.89699975382177 215.15291355242246,172.31826886366696 221.20804906358237,180.30733632205812 C227.26318457474227,188.29640378044934 231.2383581978273,187.1487969766745 238.76438915838716,184.49044393919795 C246.29042011894697,181.83209090172141 249.15709282364364,172.31826886366696 259.54979648890014,180.30733632205812 C269.9425001541566,188.29640378044934 272.091489571948,191.33190459381433 280.69150768603794,186.77164920078607 C289.29152580012794,182.21031624268383 293.94377828087323,171.1782050154099 301.8322037724447,174.97662190114346 C309.7216443747472,178.77503878687708 306.1291674972963,198.2175454164633 306.84786589493274,207.659170594562 C307.56554918183804,217.10079577266066 306.48547136392114,240.75550427638382 308.2771418043565,243.79854804526656 C310.0698273555231,246.8415918141493 328.34486584796423,244.52482690512028 328.34486584796423,244.52482690512028 " stroke="#263238" stroke-width="2.11788" stroke-linecap="round" stroke-linejoin="round" id="svg_67" class=""/><path d="M223.664 157.115C223.664 157.115 221.689 153.894 218.778 154.736C215.697 155.626 214.107 160.027 213.386 162.77C212.664 165.513 212.179 168.479 210.858 171.034C210.858 171.034 205.021 170.932 201.766 169.989C199.282 169.214 196.839 168.315 194.446 167.293C194.446 167.293 193.294 165.682 192.478 165.365C191.663 165.048 189.546 164.428 189.391 164.914C189.236 165.399 191.845 166.996 191.845 166.996C191.845 166.996 186.992 167.67 186.506 168.189C186.021 168.708 189.937 170.258 189.937 170.258C189.937 170.258 191.4 170.73 194.958 169.881C194.958 169.881 208.014 178.171 210.615 179.122C213.217 180.072 214.659 180.375 216.432 176.951C218.205 173.527 224.089 165.035 225.026 161.618" fill="#01D684" id="svg_68" class=""/><path d="M223.664 157.115C223.664 157.115 221.689 153.894 218.778 154.736C215.697 155.626 214.107 160.027 213.386 162.77C212.664 165.513 212.179 168.479 210.858 171.034C210.858 171.034 205.021 170.932 201.766 169.989C199.282 169.214 196.839 168.315 194.446 167.293C194.446 167.293 193.294 165.682 192.478 165.365C191.663 165.048 189.546 164.428 189.391 164.914C189.236 165.399 191.845 166.996 191.845 166.996C191.845 166.996 186.992 167.67 186.506 168.189C186.021 168.708 189.937 170.258 189.937 170.258C189.937 170.258 191.4 170.73 194.958 169.881C194.958 169.881 208.014 178.171 210.615 179.122C213.217 180.072 214.659 180.375 216.432 176.951C218.205 173.527 224.089 165.035 225.026 161.618" stroke="#263238" stroke-width="0.705961" stroke-linecap="round" stroke-linejoin="round" id="svg_69" class=""/><path d="M197.838 168.668C195.93 167.954 194.468 167.32 194.468 167.32C194.468 167.32 193.315 165.709 192.5 165.392C191.684 165.076 189.568 164.456 189.413 164.941C189.258 165.426 191.866 167.024 191.866 167.024C191.866 167.024 187.013 167.698 186.528 168.217C186.043 168.735 189.959 170.286 189.959 170.286C189.959 170.286 191.421 170.757 194.98 169.908L196.806 171.061L197.838 168.668Z" fill="white" stroke="#263238" stroke-width="0.705961" stroke-linecap="round" stroke-linejoin="round" id="svg_70" class=""/><path d="M248.158 177.018C247.74 176.175 247.486 175.26 247.41 174.322C247.41 173.095 249.695 171.343 250.106 170.905C250.517 170.467 250.935 170.514 251.023 171.127C251.024 171.472 250.955 171.812 250.819 172.129C250.683 172.445 250.484 172.731 250.234 172.967C249.893 173.237 249.645 173.607 249.527 174.025C249.486 174.322 250.281 175.818 249.884 176.782C249.486 177.746 248.374 178.022 248.158 177.018Z" fill="white" stroke="#263238" stroke-width="0.705961" stroke-linecap="round" stroke-linejoin="round" id="svg_71" class=""/><path d="M249.727 173.318C249.727 173.318 247.847 176.79 248.939 178.036C250.03 179.283 251.089 175.233 251.291 174.114C251.493 172.995 250.421 171.869 249.727 173.318Z" fill="white" stroke="#263238" stroke-width="0.705961" stroke-linecap="round" stroke-linejoin="round" id="svg_72" class=""/><path d="M251.28 174.566C251.28 174.566 249.399 178.037 250.491 179.284C251.583 180.531 252.641 176.48 252.844 175.361C253.046 174.242 251.974 173.076 251.28 174.566Z" fill="white" stroke="#263238" stroke-width="0.705961" stroke-linecap="round" stroke-linejoin="round" id="svg_73" class=""/><path d="M252.983 174.856C252.983 174.856 251.103 178.327 252.194 179.574C253.286 180.821 254.344 176.77 254.547 175.651C254.749 174.532 253.677 173.4 252.983 174.856Z" fill="white" stroke="#263238" stroke-width="0.705961" stroke-linecap="round" stroke-linejoin="round" id="svg_74" class=""/><path d="M255.169 174.882C255.169 174.882 253.417 177.578 254.374 178.596C255.331 179.613 256.362 176.412 256.564 175.488C256.767 174.565 255.816 173.669 255.169 174.882Z" fill="white" stroke="#263238" stroke-width="0.705961" stroke-linecap="round" stroke-linejoin="round" id="svg_75" class=""/><path d="M295.108 173.453C295.108 173.453 296.989 176.924 295.897 178.171C294.805 179.418 293.747 175.361 293.544 174.242C293.342 173.123 294.414 171.997 295.108 173.453Z" fill="white" stroke="#263238" stroke-width="0.705961" stroke-linecap="round" stroke-linejoin="round" id="svg_76" class=""/><path d="M293.559 174.667C293.559 174.667 295.44 178.138 294.348 179.385C293.256 180.632 292.198 176.574 291.996 175.456C291.793 174.337 292.865 173.218 293.559 174.667Z" fill="white" stroke="#263238" stroke-width="0.705961" stroke-linecap="round" stroke-linejoin="round" id="svg_77" class=""/><path d="M291.84 174.99C291.84 174.99 293.72 178.461 292.629 179.708C291.537 180.955 290.479 176.904 290.283 175.778C290.088 174.653 291.166 173.534 291.84 174.99Z" fill="white" stroke="#263238" stroke-width="0.705961" stroke-linecap="round" stroke-linejoin="round" id="svg_78" class=""/><path d="M289.671 175.017C289.671 175.017 291.423 177.746 290.466 178.73C289.509 179.714 288.478 176.547 288.282 175.623C288.087 174.7 289.024 173.803 289.671 175.017Z" fill="white" stroke="#263238" stroke-width="0.705961" stroke-linecap="round" stroke-linejoin="round" id="svg_79" class=""/><path d="M57.7733 213.422V217.25C56.4447 218.702 55.4894 220.456 54.9896 222.359C54.1741 225.486 51.6196 238.946 52.2936 239.297C52.9676 239.647 59.31 241.096 61.332 240.793C63.6505 240.443 65.6254 240.564 64.4593 239.283C63.2933 238.003 57.1667 234.424 57.1667 234.424C57.1667 234.424 63.9067 224.678 65.4029 221.079C66.8992 217.479 67.1419 211.912 67.1419 211.912L58.0968 211.568L57.7733 213.422Z" fill="white" stroke="#263238" stroke-width="0.705961" stroke-linecap="round" stroke-linejoin="round" id="svg_80" class=""/><path d="M61.3315 240.793C63.6501 240.443 65.6249 240.564 64.4589 239.283C63.2929 238.003 57.1662 234.424 57.1662 234.424L56.9371 235.812L52.5224 235.273C52.1988 237.524 52.0573 239.176 52.2932 239.317C53.0144 239.641 59.3095 241.096 61.3315 240.793Z" fill="#263238" stroke="#263238" stroke-width="0.705961" stroke-linecap="round" stroke-linejoin="round" id="svg_81" class=""/><path d="M79.934 215.403L80.9787 217.263C80.5456 218.098 80.2908 219.014 80.2305 219.953C80.1702 220.891 80.3056 221.832 80.6282 222.716C81.6729 225.965 84.1128 237.915 84.1128 238.609C84.1128 239.303 85.6158 239.768 86.8088 239.768C88.0017 239.768 91.3043 239.997 91.7694 239.997C92.2345 239.997 95.5977 240.577 96.757 239.883C97.9163 239.188 95.2809 237.793 93.542 236.984C91.8031 236.176 87.9748 234.086 87.9748 234.086C87.9748 234.086 88.8982 224.569 88.8982 220.391C88.8982 216.212 89.8283 214.823 88.5544 212.269C87.2806 209.714 79.2734 213.435 79.2734 213.435L79.934 215.403Z" fill="white" stroke="#263238" stroke-width="0.705961" stroke-linecap="round" stroke-linejoin="round" id="svg_82" class=""/><path d="M93.5095 236.985C91.7706 236.17 87.9423 234.087 87.9423 234.087L87.4772 235.826L83.75 236.5C83.9724 237.659 84.114 238.454 84.114 238.616C84.114 239.29 85.617 239.775 86.81 239.775C88.0029 239.775 91.3055 240.005 91.7706 240.005C92.2357 240.005 95.5989 240.584 96.7582 239.89C97.9175 239.196 95.2484 237.794 93.5095 236.985Z" fill="#263238" stroke="#263238" stroke-width="0.705961" stroke-linecap="round" stroke-linejoin="round" id="svg_83" class=""/><path d="M73.6861 138.17C72.7766 136.615 71.7372 135.141 70.579 133.762C68.9816 131.962 63.9738 132.063 61.7765 134.436C59.5793 136.808 60.2735 141.041 61.1025 142.24C61.9316 143.44 63.6031 149.048 63.6031 149.048L64.0007 153.051L73.3087 156.354L71.408 149.85C71.408 149.85 75.0139 149.176 75.3105 148.05C75.607 146.925 74.7106 143.144 74.7106 143.144C74.7106 143.144 75.9103 142.342 75.8092 141.641C75.7081 140.94 73.6861 138.17 73.6861 138.17Z" fill="white" stroke="#263238" stroke-width="0.705961" stroke-linecap="round" stroke-linejoin="round" id="svg_84" class=""/><path d="M62.9774 142.483C62.9774 142.483 64.568 143.831 65.4375 142.287C66.307 140.744 66.9675 139.234 66.9675 137.927C66.9675 136.619 63.6986 135.534 65.8756 134.658C68.0526 133.782 69.623 135.729 70.5936 133.775C71.5642 131.82 70.6812 131.611 65.451 131.611C60.2207 131.611 57.6056 134.226 58.711 137.495C59.595 139.909 60.6888 142.241 61.9799 144.465L62.9774 142.483Z" fill="#263238" stroke="#263238" stroke-width="0.705961" stroke-linecap="round" stroke-linejoin="round" id="svg_85" class=""/><path d="M73.9835 140.481C73.9835 140.976 73.8368 141.459 73.5621 141.87C73.2873 142.281 72.8968 142.602 72.4399 142.791C71.983 142.98 71.4802 143.03 70.9951 142.933C70.5101 142.837 70.0645 142.599 69.7148 142.249C69.3651 141.899 69.127 141.454 69.0305 140.969C68.934 140.484 68.9835 139.981 69.1728 139.524C69.362 139.067 69.6825 138.677 70.0937 138.402C70.5049 138.127 70.9884 137.98 71.483 137.98C72.1461 137.98 72.7822 138.244 73.2511 138.713C73.7201 139.182 73.9835 139.818 73.9835 140.481V140.481Z" stroke="#263238" stroke-width="0.705961" stroke-linecap="round" stroke-linejoin="round" id="svg_86" class=""/><path d="M73.6191 138.264C73.9101 138.145 74.2214 138.083 74.5358 138.082C75.0564 138.083 75.5621 138.257 75.9735 138.576C76.3848 138.895 76.6787 139.342 76.809 139.846C76.9392 140.35 76.8986 140.883 76.6933 141.361C76.4881 141.84 76.1299 142.237 75.6748 142.49" stroke="#263238" stroke-width="0.705961" stroke-linecap="round" stroke-linejoin="round" id="svg_87" class=""/><path d="M68.9819 140.48L62.9766 142.482" stroke="#263238" stroke-width="0.705961" stroke-linecap="round" stroke-linejoin="round" id="svg_88" class=""/><path d="M64.7018 143.784C64.7018 143.784 63.5021 141.283 62.3024 141.762C61.1027 142.241 61.7025 146.17 62.9022 146.568C63.3054 146.658 63.7244 146.651 64.1243 146.547C64.5241 146.443 64.8932 146.244 65.2006 145.968C65.2006 145.968 66.2048 148.071 67.4046 148.664" fill="white" id="svg_89" class=""/><path d="M64.7018 143.784C64.7018 143.784 63.5021 141.283 62.3024 141.762C61.1027 142.241 61.7025 146.17 62.9022 146.568C63.3054 146.658 63.7244 146.651 64.1243 146.547C64.5241 146.443 64.8932 146.244 65.2006 145.968C65.2006 145.968 66.2048 148.071 67.4046 148.664" stroke="#263238" stroke-width="0.705961" stroke-linecap="round" stroke-linejoin="round" id="svg_90" class=""/><path d="M56.8315 188.719L56.0834 198.303L53.8457 212.491C53.8457 212.491 59.0759 216.596 63.9557 216.596C68.8355 216.596 70.1767 215.976 70.1767 215.976L72.9132 201.417L75.6496 216.724C75.6496 216.724 81.0416 215.854 84.6138 214.978C87.0977 214.287 89.4518 213.194 91.583 211.743L84.3644 192.952L82.8007 183.26C82.8007 183.26 74.7127 184.008 69.8532 184.257C64.9937 184.507 58.53 183.26 58.53 183.26L56.8315 188.719Z" fill="#01D684" stroke="#263238" stroke-width="0.705961" stroke-linecap="round" stroke-linejoin="round" id="svg_91" class=""/><path d="M61.9603 150.423C61.9603 150.423 73.4183 154.419 76.9568 158.302C78.9114 160.458 81.1019 175.219 81.8905 178.825C82.6791 182.431 84.0541 189.609 84.0541 189.609C84.0541 189.609 77.0647 192.763 71.6592 192.878C66.2537 192.992 55.8809 190.512 55.8809 190.512C55.8809 190.512 57.1143 174.518 57.1143 167.084C57.1143 159.65 57.2289 154.797 58.4623 152.431C58.469 152.451 60.4978 150.193 61.9603 150.423Z" fill="#263238" stroke="#263238" stroke-width="0.705961" stroke-linecap="round" stroke-linejoin="round" id="svg_92" class=""/><path d="M58.9467 191.672C58.9467 191.672 59.5667 202.126 58.9467 205.988C58.5112 208.479 57.7593 210.905 56.709 213.206" stroke="#263238" stroke-width="0.705961" stroke-linecap="round" stroke-linejoin="round" id="svg_93" class=""/><path d="M59.1953 196.653C60.1312 196.331 60.9674 195.772 61.622 195.03C62.2766 194.288 62.7271 193.389 62.9293 192.42" stroke="#263238" stroke-width="0.705961" stroke-linecap="round" stroke-linejoin="round" id="svg_94" class=""/><path d="M54.4648 210.47C54.4648 210.47 60.6926 215.821 70.3982 213.84" stroke="#263238" stroke-width="0.705961" stroke-linecap="round" stroke-linejoin="round" id="svg_95" class=""/><path d="M75.377 213.576C75.377 213.576 85.5813 212.457 90.0634 209.472" stroke="#263238" stroke-width="0.705961" stroke-linecap="round" stroke-linejoin="round" id="svg_96" class=""/><path d="M121.02 145.584C121.02 145.584 120.036 146.312 116.605 148.819C113.175 151.326 115.877 155.114 115.877 155.114C115.877 155.114 113.424 155.498 110.148 158.942C106.873 162.387 111.611 168.298 116.039 169.221C120.467 170.144 125.644 164.665 127.194 159.583C128.744 154.501 126.695 146.837 125.664 145.253C124.633 143.67 121.02 145.584 121.02 145.584Z" fill="#263238" stroke="#263238" stroke-width="0.705961" stroke-linecap="round" stroke-linejoin="round" id="svg_97" class=""/><path d="M134.018 144.909C134.018 144.909 135.723 142.274 134.18 138.452C132.636 134.631 128.026 132.885 123.537 135.655C122.041 136.545 120.881 137.905 120.236 139.522C119.591 141.139 119.498 142.924 119.972 144.599C120.41 146.365 122.621 149.081 123.086 149.122C123.551 149.162 127.588 150.632 130.345 149.344C133.101 148.057 134.018 144.909 134.018 144.909Z" fill="#263238" stroke="#263238" stroke-width="0.705961" stroke-linecap="round" stroke-linejoin="round" id="svg_98" class=""/><path d="M114.182 233.877C114.182 233.877 117.383 238.858 122.944 239.707C128.504 240.556 123.503 235.569 122.566 234.814C121.629 234.059 114.937 232.428 114.182 233.877Z" fill="#737373" stroke="#263238" stroke-width="0.705961" stroke-linecap="round" stroke-linejoin="round" id="svg_99" class=""/><path d="M143.802 235.158C143.802 235.158 149.915 236.661 149.443 237.982C148.972 239.303 143.991 239.202 141.079 238.447C138.167 237.692 135.431 236.567 135.808 235.347C136.186 234.127 143.802 235.158 143.802 235.158Z" fill="#737373" stroke="#263238" stroke-width="0.705961" stroke-linecap="round" stroke-linejoin="round" id="svg_100" class=""/><path d="M126.421 154.817C126.421 154.817 118.239 156.017 116.742 158.909C115.246 161.8 117.356 177.551 117.356 177.551C117.356 177.551 113.864 185.255 113.817 190.216C113.77 195.177 115.981 203.905 115.805 206.082C115.63 208.259 113.393 233.042 113.393 233.716C113.393 234.39 118.111 235.9 124.911 236.708C131.712 237.517 144.72 235.098 144.72 235.098C144.72 235.098 144.464 220.472 145.145 211.75C145.825 203.029 144.855 195.19 143.123 191.935C141.391 188.679 133.323 176.958 133.323 176.958C133.323 176.958 137.232 169.868 137.475 166.767C137.717 163.667 136.457 162.049 133.505 158.484C132.627 157.432 131.549 156.566 130.333 155.937C129.116 155.307 127.786 154.926 126.421 154.817Z" fill="#01D684" stroke="#263238" stroke-width="0.705961" stroke-linecap="round" stroke-linejoin="round" id="svg_101" class=""/><path d="M133.342 176.965C133.342 176.965 137.251 169.875 137.494 166.775C137.737 163.674 136.476 162.057 133.524 158.491C133.383 158.316 133.234 158.161 133.086 157.999L132.978 158.1C129.945 163.054 119.916 171.519 116.93 173.986C117.159 176.096 117.355 177.552 117.355 177.552C117.355 177.552 113.864 185.256 113.816 190.216C113.872 192.477 114.098 194.73 114.49 196.956C121.574 192.912 131.051 185.343 136.18 181.124C134.576 178.751 133.342 176.965 133.342 176.965Z" fill="#737373" stroke="#263238" stroke-width="0.705961" stroke-linecap="round" stroke-linejoin="round" id="svg_102" class=""/><path d="M124.91 149.034C125.136 150.883 125.26 152.744 125.281 154.608C125.173 155.989 125.618 159.144 127.977 160.135C130.336 161.125 131.819 159.744 131.812 158.355C131.726 157.208 131.5 156.077 131.138 154.985L131.205 151.177C131.205 151.177 127.134 148.629 124.91 149.034Z" fill="white" stroke="#263238" stroke-width="0.705961" stroke-linecap="round" stroke-linejoin="round" id="svg_103" class=""/><path d="M122.795 146.561C122.795 146.561 121.063 145.037 121.009 147.235C120.955 149.432 122.977 150.16 123.422 150.308C123.797 150.359 124.178 150.265 124.487 150.045C124.487 150.045 127.628 152.741 130.148 152.916C132.669 153.092 133.694 151.926 134.287 147.349C134.88 142.773 130.155 138.129 130.155 138.129C130.155 138.129 126.111 145.583 122.795 146.561Z" fill="white" stroke="#263238" stroke-width="0.705961" stroke-linecap="round" stroke-linejoin="round" id="svg_104" class=""/><path d="M84.2473 189.515C84.2244 188.734 84.3525 187.956 84.6248 187.223C85.0427 186.306 87.3208 185.781 87.8263 185.606C88.3318 185.43 88.5879 185.606 88.4396 186.084C88.3217 186.341 88.1528 186.572 87.9431 186.762C87.7334 186.952 87.4873 187.097 87.2197 187.189C86.8711 187.273 86.5575 187.464 86.3233 187.735C86.1952 187.951 86.2761 189.333 85.6493 189.919C85.0224 190.506 84.0384 190.344 84.2473 189.515Z" fill="white" stroke="#263238" stroke-width="0.705961" stroke-linecap="round" stroke-linejoin="round" id="svg_105" class=""/><path d="M135.904 169.248C135.904 169.248 127.816 168.189 124.25 173.838C120.685 179.486 114.019 199.247 101.664 202.429C89.3099 205.61 85.7782 180.187 78.3642 180.894C71.3006 181.568 66.367 180.894 62.1275 188.659C59.8629 192.817 48.5397 238.225 43.1881 238.69C26.1426 240.179 15.1699 239.209 15.1699 239.209" stroke="#263238" stroke-width="2.11788" stroke-linecap="round" stroke-linejoin="round" id="svg_106" class=""/><path d="M62.4858 150.746C62.4858 150.746 60.6189 149.998 58.1251 151.488C55.6313 152.977 48.9182 169.288 49.417 171.034C49.9157 172.78 57.0062 176.015 60.9896 177.134C64.9729 178.252 72.1915 179.627 72.1915 179.627C72.1915 179.627 74.4291 183.112 75.1773 183.233C76.2654 183.219 77.3492 183.094 78.4125 182.863C78.4125 182.863 79.7605 183.981 80.2795 182.735C80.7984 181.488 79.7807 179.877 78.6618 178.63C77.543 177.383 72.8115 176.763 72.8115 176.763L59.9853 167.92L65.3773 157.965" fill="#263238" id="svg_107" class=""/><path d="M62.4858 150.746C62.4858 150.746 60.6189 149.998 58.1251 151.488C55.6313 152.977 48.9182 169.288 49.417 171.034C49.9157 172.78 57.0062 176.015 60.9896 177.134C64.9729 178.252 72.1915 179.627 72.1915 179.627C72.1915 179.627 74.4291 183.112 75.1773 183.233C76.2654 183.219 77.3492 183.094 78.4125 182.863C78.4125 182.863 79.7605 183.981 80.2795 182.735C80.7984 181.488 79.7807 179.877 78.6618 178.63C77.543 177.383 72.8115 176.763 72.8115 176.763L59.9853 167.92L65.3773 157.965" stroke="#263238" stroke-width="0.705961" stroke-linecap="round" stroke-linejoin="round" id="svg_108" class=""/><path d="M75.176 183.227C76.2641 183.212 77.3479 183.088 78.4111 182.856C78.4111 182.856 79.7592 183.975 80.2781 182.728C80.7971 181.481 79.7794 179.87 78.6605 178.623C77.5417 177.376 72.8102 176.756 72.8102 176.756L59.984 167.92L61.8981 164.355C57.106 161.369 53.9247 161.591 52.206 162.191C50.4873 166.316 49.1798 170.225 49.4089 171.027C49.9077 172.773 56.9982 176.008 60.9815 177.127C64.9649 178.246 72.1834 179.621 72.1834 179.621C72.1834 179.621 74.4278 183.105 75.176 183.227Z" fill="white" stroke="#263238" stroke-width="0.705961" stroke-linecap="round" stroke-linejoin="round" id="svg_109" class=""/><path d="M155.349 169.524C154.803 163.64 151.979 158.807 148.609 156.886L148.501 155.687L139.699 156.502C134.745 156.96 131.328 163.761 132.062 171.687C132.797 179.614 137.407 185.659 142.361 185.167L151.163 184.352L151.049 183.152C154.014 180.672 155.895 175.408 155.349 169.524Z" fill="#263238" stroke="#263238" stroke-width="0.705961" stroke-linecap="round" stroke-linejoin="round" id="svg_110" class=""/><path d="M159.33 169.174C158.757 162.993 155.96 157.904 152.395 155.882L152.274 154.622L148.506 154.973C143.303 155.458 139.71 162.595 140.479 170.926C141.247 179.257 146.1 185.613 151.303 185.127L155.071 184.777L154.956 183.516C158.07 180.861 159.903 175.334 159.33 169.174Z" fill="white" stroke="#263238" stroke-width="0.705961" stroke-linecap="round" stroke-linejoin="round" id="svg_111" class=""/><path d="M163.107 168.803C163.882 177.134 160.29 184.271 155.08 184.757C149.87 185.242 145.024 178.879 144.235 170.555C143.447 162.232 147.053 155.053 152.256 154.602C157.459 154.15 162.325 160.479 163.107 168.803Z" fill="white" stroke="#263238" stroke-width="0.705961" stroke-linecap="round" stroke-linejoin="round" id="svg_112" class=""/><path d="M167.15 163.936L152.531 165.284C152.326 165.304 152.119 165.283 151.922 165.222C151.725 165.161 151.542 165.062 151.384 164.931C151.226 164.799 151.095 164.638 150.999 164.456C150.903 164.273 150.844 164.074 150.825 163.869C150.806 163.664 150.827 163.457 150.888 163.26C150.948 163.063 151.047 162.881 151.179 162.722C151.31 162.564 151.472 162.433 151.654 162.337C151.836 162.241 152.036 162.182 152.241 162.164L166.86 160.816C167.065 160.796 167.272 160.817 167.468 160.878C167.665 160.939 167.848 161.038 168.006 161.169C168.165 161.301 168.296 161.462 168.392 161.644C168.488 161.827 168.546 162.026 168.565 162.231C168.585 162.436 168.563 162.643 168.503 162.84C168.442 163.036 168.343 163.219 168.212 163.378C168.08 163.536 167.919 163.667 167.736 163.763C167.554 163.859 167.355 163.918 167.15 163.936Z" fill="#737373" stroke="#263238" stroke-width="0.705961" stroke-linecap="round" stroke-linejoin="round" id="svg_113" class=""/><path d="M168.236 175.523L153.617 176.871C153.412 176.89 153.205 176.869 153.008 176.809C152.811 176.748 152.628 176.649 152.47 176.518C152.311 176.386 152.181 176.224 152.085 176.042C151.989 175.86 151.93 175.661 151.911 175.456C151.892 175.251 151.913 175.044 151.974 174.847C152.034 174.65 152.133 174.467 152.265 174.309C152.396 174.15 152.558 174.02 152.74 173.924C152.922 173.828 153.122 173.769 153.327 173.75L167.946 172.402C168.359 172.367 168.77 172.495 169.089 172.76C169.408 173.025 169.61 173.405 169.651 173.818C169.67 174.023 169.649 174.23 169.589 174.426C169.528 174.623 169.429 174.806 169.298 174.964C169.166 175.123 169.005 175.254 168.822 175.35C168.64 175.445 168.441 175.504 168.236 175.523Z" fill="#737373" stroke="#263238" stroke-width="0.705961" stroke-linecap="round" stroke-linejoin="round" id="svg_114" class=""/><path d="M121.366 155.916C121.366 155.916 117.848 156.59 116.183 158.612C114.518 160.634 111.101 176.237 111.89 178.03C112.678 179.823 125.316 182.074 129.218 182.397C132.356 182.522 135.499 182.382 138.614 181.98C138.614 181.98 141.984 181.892 142.907 181.737C143.831 181.582 145.529 180.672 145.556 180.328C145.583 179.985 145.415 179.162 144.154 179.061C142.894 178.96 140.191 178.057 139.847 178.03C140.657 177.817 141.479 177.65 142.307 177.531C142.307 177.531 142.483 176.857 141.094 176.857C139.706 176.857 138.445 176.763 137.92 177.531C137.544 178.13 137.223 178.761 136.963 179.418C136.963 179.418 129.178 179.964 124.952 177.902C120.726 175.839 119.391 175.152 119.391 175.152L122.424 163.02" fill="#01D684" id="svg_115" class=""/><path d="M121.366 155.916C121.366 155.916 117.848 156.59 116.183 158.612C114.518 160.634 111.101 176.237 111.89 178.03C112.678 179.823 125.316 182.074 129.218 182.397C132.356 182.522 135.499 182.382 138.614 181.98C138.614 181.98 141.984 181.892 142.907 181.737C143.831 181.582 145.529 180.672 145.556 180.328C145.583 179.985 145.415 179.162 144.154 179.061C142.894 178.96 140.191 178.057 139.847 178.03C140.657 177.817 141.479 177.65 142.307 177.531C142.307 177.531 142.483 176.857 141.094 176.857C139.706 176.857 138.445 176.763 137.92 177.531C137.544 178.13 137.223 178.761 136.963 179.418C136.963 179.418 129.178 179.964 124.952 177.902C120.726 175.839 119.391 175.152 119.391 175.152L122.424 163.02" stroke="#263238" stroke-width="0.705961" stroke-linecap="round" stroke-linejoin="round" id="svg_116" class=""/><path d="M142.886 181.758C143.823 181.603 145.508 180.693 145.535 180.349C145.562 180.005 145.393 179.183 144.133 179.082C142.873 178.981 140.17 178.078 139.826 178.051C140.636 177.838 141.457 177.671 142.286 177.552C142.286 177.552 142.461 176.878 141.073 176.878C139.685 176.878 138.424 176.783 137.898 177.552C137.523 178.15 137.202 178.782 136.941 179.439C136.941 179.439 129.157 179.985 124.931 177.923C120.705 175.86 119.37 175.173 119.37 175.173L121.217 167.759C118.813 166.769 116.276 166.14 113.688 165.892C112.428 170.974 111.397 176.959 111.869 178.024C112.65 179.816 125.295 182.068 129.197 182.391C132.335 182.515 135.478 182.375 138.593 181.973C138.593 181.973 141.969 181.913 142.886 181.758Z" fill="white" stroke="#263238" stroke-width="0.705961" stroke-linecap="round" stroke-linejoin="round" id="svg_117" class=""/><path d="M85.9602 188.207C85.9602 188.207 83.3585 190.155 83.7562 191.442C84.1539 192.729 86.3241 190.094 86.8633 189.319C87.4025 188.544 86.9779 187.371 85.9602 188.207Z" fill="white" stroke="#263238" stroke-width="0.705961" stroke-linecap="round" stroke-linejoin="round" id="svg_118" class=""/><path d="M86.4726 189.953C86.4726 189.953 83.8777 191.901 84.2686 193.188C84.6596 194.475 86.8433 191.84 87.3758 191.065C87.9082 190.29 87.4904 189.104 86.4726 189.953Z" fill="white" stroke="#263238" stroke-width="0.705961" stroke-linecap="round" stroke-linejoin="round" id="svg_119" class=""/><path d="M87.7055 191.086C87.7055 191.086 85.1106 193.033 85.5082 194.321C85.9059 195.608 88.0762 192.973 88.6154 192.198C89.1546 191.423 88.73 190.236 87.7055 191.086Z" fill="white" stroke="#263238" stroke-width="0.705961" stroke-linecap="round" stroke-linejoin="round" id="svg_120" class=""/><path d="M88.7242 192.002C88.7242 192.002 86.4798 193.444 86.8572 194.509C87.2347 195.574 89.0882 193.559 89.5532 192.939C90.0183 192.319 89.6409 191.321 88.7242 192.002Z" fill="white" stroke="#263238" stroke-width="0.705961" stroke-linecap="round" stroke-linejoin="round" id="svg_121" class=""/></g></svg>